<svg width="36" height="36" viewBox="0 0 36 36" fill="none" xmlns="http://www.w3.org/2000/svg">
<path d="M16.3127 18C16.3127 18.4476 16.4905 18.8768 16.807 19.1932C17.1234 19.5097 17.5526 19.6875 18.0002 19.6875C18.4478 19.6875 18.877 19.5097 19.1934 19.1932C19.5099 18.8768 19.6877 18.4476 19.6877 18C19.6877 17.5524 19.5099 17.1232 19.1934 16.8068C18.877 16.4903 18.4478 16.3125 18.0002 16.3125C17.5526 16.3125 17.1234 16.4903 16.807 16.8068C16.4905 17.1232 16.3127 17.5524 16.3127 18ZM23.344 18C23.344 18.4476 23.5217 18.8768 23.8382 19.1932C24.1547 19.5097 24.5839 19.6875 25.0315 19.6875C25.479 19.6875 25.9082 19.5097 26.2247 19.1932C26.5412 18.8768 26.719 18.4476 26.719 18C26.719 17.5524 26.5412 17.1232 26.2247 16.8068C25.9082 16.4903 25.479 16.3125 25.0315 16.3125C24.5839 16.3125 24.1547 16.4903 23.8382 16.8068C23.5217 17.1232 23.344 17.5524 23.344 18ZM9.28145 18C9.28145 18.4476 9.45924 18.8768 9.77571 19.1932C10.0922 19.5097 10.5214 19.6875 10.9689 19.6875C11.4165 19.6875 11.8457 19.5097 12.1622 19.1932C12.4787 18.8768 12.6564 18.4476 12.6564 18C12.6564 17.5524 12.4787 17.1232 12.1622 16.8068C11.8457 16.4903 11.4165 16.3125 10.9689 16.3125C10.5214 16.3125 10.0922 16.4903 9.77571 16.8068C9.45924 17.1232 9.28145 17.5524 9.28145 18ZM32.5268 11.8969C31.7322 10.009 30.5932 8.31445 29.1412 6.85898C27.6994 5.41194 25.9878 4.26172 24.1033 3.47344C22.1697 2.66133 20.1166 2.25 18.0002 2.25H17.9299C15.7994 2.26055 13.7357 2.68242 11.7951 3.51211C9.92677 4.30847 8.2312 5.46074 6.80293 6.90469C5.36504 8.35664 4.23653 10.0441 3.45606 11.925C2.64747 13.8727 2.23965 15.9434 2.2502 18.0738C2.26213 20.5153 2.83974 22.9208 3.9377 25.1016V30.4453C3.9377 30.8742 4.10808 31.2856 4.41136 31.5888C4.71464 31.8921 5.12598 32.0625 5.55489 32.0625H10.9022C13.0829 33.1605 15.4884 33.7381 17.9299 33.75H18.0037C20.1096 33.75 22.1522 33.3422 24.0752 32.5441C25.9502 31.7653 27.6554 30.6284 29.0955 29.1973C30.5475 27.7594 31.69 26.0789 32.4881 24.2051C33.3178 22.2645 33.7397 20.2008 33.7502 18.0703C33.7607 15.9293 33.3459 13.8516 32.5268 11.8969ZM27.2147 27.2953C24.7502 29.7352 21.4807 31.0781 18.0002 31.0781H17.9404C15.8205 31.0676 13.7147 30.5402 11.8549 29.5488L11.5596 29.3906H6.60957V24.4406L6.45137 24.1453C5.45997 22.2855 4.93262 20.1797 4.92207 18.0598C4.90801 14.5547 6.24747 11.2641 8.70489 8.78555C11.1588 6.30703 14.4389 4.93594 17.9439 4.92188H18.0037C19.7615 4.92188 21.4666 5.26289 23.0732 5.93789C24.6412 6.59531 26.0475 7.54102 27.2568 8.75039C28.4627 9.95625 29.4119 11.366 30.0693 12.934C30.7514 14.5582 31.0924 16.2809 31.0854 18.0598C31.0643 21.5613 29.6897 24.8414 27.2147 27.2953Z" fill="#E3A3E0"/>
</svg>
