<svg width="24" height="24" viewBox="0 0 24 24" fill="none" xmlns="http://www.w3.org/2000/svg">
<path fill-rule="evenodd" clip-rule="evenodd" d="M15.5841 15.584C15.5841 15.584 15.5827 15.5853 15.582 15.5871L13.4063 21.5703C13.4063 21.5703 13.2426 22.0112 12.8565 22.2798C12.8565 22.2798 12.4704 22.5483 12 22.5483C12 22.5483 11.5297 22.5483 11.1436 22.2798C11.1436 22.2798 10.7575 22.0112 10.5921 21.5656L8.41817 15.5874C8.41817 15.5874 8.41796 15.5868 8.41754 15.586C8.41718 15.5854 8.41667 15.5846 8.41601 15.584L8.41518 15.5828L2.42968 13.4062C2.42968 13.4062 1.98875 13.2425 1.7202 12.8564C1.7202 12.8564 1.45166 12.4703 1.45166 11.9999C1.45166 11.9999 1.45166 11.5296 1.7202 11.1435C1.7202 11.1435 1.98875 10.7573 2.43436 10.592L8.41262 8.41805C8.41262 8.41805 8.41313 8.41786 8.41383 8.41748C8.41449 8.41712 8.4153 8.41659 8.41601 8.41588L8.41712 8.41506L10.5938 2.42956C10.5938 2.42956 10.7575 1.98863 11.1436 1.72008C11.1436 1.72008 11.5297 1.45154 12 1.45154C12 1.45154 12.4704 1.45154 12.8565 1.72008C12.8565 1.72008 13.2426 1.98863 13.408 2.43424L15.5819 8.41249C15.5819 8.41249 15.5822 8.41323 15.5827 8.41413C15.5831 8.4147 15.5835 8.41533 15.5841 8.41589L15.5849 8.417L21.5704 10.5937C21.5704 10.5937 22.0113 10.7573 22.2799 11.1435C22.2799 11.1435 22.5484 11.5296 22.5484 11.9999C22.5484 11.9999 22.5484 12.4703 22.2799 12.8564C22.2799 12.8564 22.0113 13.2425 21.5657 13.4079L15.5875 15.5818C15.5875 15.5818 15.5869 15.582 15.5861 15.5824C15.5855 15.5828 15.5847 15.5833 15.5841 15.584ZM14.1746 15.0683C14.1746 15.0683 14.2894 14.7574 14.5234 14.5233C14.5234 14.5233 14.7578 14.2889 15.0689 14.1743L21.0484 11.9999L15.0719 9.82664C15.0719 9.82664 14.7578 9.71094 14.5234 9.47654C14.5234 9.47654 14.289 9.24214 14.1744 8.9311L12 2.95156L9.82677 8.92811C9.82677 8.92811 9.71106 9.24215 9.47667 9.47654C9.47667 9.47654 9.24227 9.71094 8.93122 9.82555L2.95168 11.9999L8.92823 14.1732C8.92823 14.1732 9.24226 14.2889 9.47666 14.5233C9.47666 14.5233 9.71106 14.7577 9.82567 15.0687L12 21.0483L14.1733 15.0717L14.1746 15.0683Z" fill="white"/>
</svg>
