<svg width="68" height="68" viewBox="0 0 68 68" fill="none" xmlns="http://www.w3.org/2000/svg">
<path d="M52.4166 55.25H41.0833" stroke="#292D32" stroke-width="2.5" stroke-linecap="round" stroke-linejoin="round"/>
<path d="M46.75 60.9166V49.5833" stroke="#292D32" stroke-width="2.5" stroke-linecap="round" stroke-linejoin="round"/>
<path d="M34.4534 30.7984C34.17 30.77 33.83 30.77 33.5184 30.7984C26.775 30.5717 21.42 25.0467 21.42 18.2467C21.3917 11.305 27.03 5.66669 33.9717 5.66669C40.9134 5.66669 46.5517 11.305 46.5517 18.2467C46.5517 25.0467 41.1684 30.5717 34.4534 30.7984Z" stroke="#292D32" stroke-width="2.5" stroke-linecap="round" stroke-linejoin="round"/>
<path d="M33.9718 61.795C28.8151 61.795 23.6868 60.4917 19.7768 57.885C12.9201 53.295 12.9201 45.815 19.7768 41.2533C27.5684 36.04 40.3468 36.04 48.1384 41.2533" stroke="#292D32" stroke-width="2.5" stroke-linecap="round" stroke-linejoin="round"/>
</svg>
