<svg width="21" height="21" viewBox="0 0 21 21" fill="none" xmlns="http://www.w3.org/2000/svg">
<path d="M14.1357 4.59375V4.09375V3.9375C14.1357 3.7473 13.9822 3.59375 13.792 3.59375H13.6357H13.1357H7.69824H7.54199C7.35179 3.59375 7.19824 3.7473 7.19824 3.9375V4.09375V5H6.79199V3.9375C6.79199 3.52419 7.12868 3.1875 7.54199 3.1875H13.792C14.2053 3.1875 14.542 3.52419 14.542 3.9375V5H14.1357V4.59375ZM7.69824 6H8.19824H13.1357H13.6357H15.042H15.542H17.542C17.6116 6 17.667 6.05544 17.667 6.125V6.40625H16.8311H16.3541L16.3316 6.88266L15.8492 17.0975L15.8492 17.0977C15.8304 17.4989 15.5015 17.8125 15.1006 17.8125H6.2334C5.83452 17.8125 5.50354 17.497 5.4848 17.0977L5.4848 17.0975L5.00237 6.88266L4.97987 6.40625H4.50293H3.66699V6.125C3.66699 6.05544 3.72243 6 3.79199 6H5.79199H6.29199H7.69824ZM14.9502 17.4062H15.4271L15.4496 16.9299L15.9223 6.92986L15.947 6.40625H15.4229H5.91113H5.38694L5.41169 6.92986L5.88435 16.9299L5.90686 17.4062H6.38379H14.9502Z" fill="white" stroke="white"/>
</svg>
