<svg width="16" height="16" viewBox="0 0 16 16" fill="none" xmlns="http://www.w3.org/2000/svg">
<path fill-rule="evenodd" clip-rule="evenodd" d="M4.91444 2.63528C5.73278 1.80169 6.84269 1.33337 8 1.33337C9.15731 1.33337 10.2672 1.80169 11.0856 2.63528C11.9039 3.46888 12.3636 4.59949 12.3636 5.77838V7.44525C12.3636 8.15935 12.6675 8.59999 13.0454 9.03622C13.0891 9.08666 13.1371 9.14052 13.1873 9.19681C13.3393 9.36723 13.5111 9.55994 13.6427 9.74763C13.832 10.0176 14 10.3557 14 10.779C14 11.2503 13.7306 11.6169 13.4065 11.8754C13.0822 12.134 12.6427 12.3379 12.1362 12.4975C11.1177 12.8184 9.69468 13.0015 8 13.0015C6.30532 13.0015 4.88231 12.8184 3.8638 12.4975C3.35732 12.3379 2.91776 12.134 2.59354 11.8754C2.26943 11.6169 2 11.2503 2 10.779C2 10.3557 2.16797 10.0176 2.35728 9.74763C2.48889 9.55994 2.66074 9.36723 2.81272 9.19681C2.86291 9.14052 2.91094 9.08666 2.95463 9.03622C3.3325 8.59999 3.63636 8.15935 3.63636 7.44525V5.77838C3.63636 4.59949 4.0961 3.46888 4.91444 2.63528ZM8 2.44462C7.13202 2.44462 6.29959 2.79586 5.68583 3.42106C5.07208 4.04626 4.72727 4.89421 4.72727 5.77838V7.44525C4.72727 8.56471 4.21296 9.26311 3.77264 9.77144C3.70179 9.85323 3.63744 9.92542 3.57848 9.99155C3.44344 10.143 3.33669 10.2628 3.24499 10.3935C3.12748 10.5611 3.09091 10.6744 3.09091 10.779C3.09086 10.7816 3.08925 10.8594 3.26612 11.0005C3.44474 11.143 3.74495 11.2968 4.1862 11.4358C5.06315 11.7122 6.3674 11.8903 8 11.8903C9.6326 11.8903 10.9369 11.7122 11.8138 11.4358C12.2551 11.2968 12.5553 11.143 12.7339 11.0005C12.9108 10.8594 12.9091 10.7816 12.9091 10.7791C12.9091 10.6745 12.8725 10.5611 12.755 10.3935C12.6633 10.2628 12.5566 10.143 12.4215 9.99155C12.3626 9.92542 12.2982 9.85323 12.2274 9.77144C11.787 9.26311 11.2727 8.56471 11.2727 7.44525V5.77838C11.2727 4.89421 10.9279 4.04626 10.3142 3.42106C9.70041 2.79586 8.86798 2.44462 8 2.44462Z" fill="#E3A3E0"/>
<path d="M8 13.5571C7.44855 13.5571 6.93036 13.5382 6.44273 13.5016C6.54669 13.8394 6.7538 14.1346 7.0339 14.3441C7.314 14.5537 7.65246 14.6667 8 14.6667C8.34754 14.6667 8.686 14.5537 8.9661 14.3441C9.2462 14.1346 9.45331 13.8394 9.55727 13.5016C9.06964 13.5382 8.55145 13.5571 8 13.5571Z" fill="#E3A3E0"/>
</svg>
