<svg width="106" height="106" viewBox="0 0 106 106" fill="none" xmlns="http://www.w3.org/2000/svg">
<g filter="url(#filter0_d_1_7182)">
<rect x="15" y="11" width="72" height="72" rx="36" fill="#C2B8FF" shape-rendering="crispEdges"/>
<path d="M44 61H43C35 61 31 59 31 49V39C31 31 35 27 43 27H59C67 27 71 31 71 39V49C71 57 67 61 59 61H58C57.38 61 56.78 61.3 56.4 61.8L53.4 65.8C52.08 67.56 49.92 67.56 48.6 65.8L45.6 61.8C45.28 61.36 44.54 61 44 61Z" stroke="white" stroke-width="2.5" stroke-miterlimit="10" stroke-linecap="round" stroke-linejoin="round"/>
<path d="M58.9929 45H59.0109" stroke="white" stroke-width="3.5" stroke-linecap="round" stroke-linejoin="round"/>
<path d="M50.991 45H51.0089" stroke="white" stroke-width="3.5" stroke-linecap="round" stroke-linejoin="round"/>
<path d="M42.989 45H43.007" stroke="white" stroke-width="3.5" stroke-linecap="round" stroke-linejoin="round"/>
<g filter="url(#filter1_d_1_7182)">
<circle cx="85" cy="81" r="6" fill="#C2B8FF"/>
</g>
<g filter="url(#filter2_d_1_7182)">
<circle cx="71" cy="76" r="6" fill="#C2B8FF"/>
</g>
</g>
<defs>
<filter id="filter0_d_1_7182" x="0" y="0" width="106" height="106" filterUnits="userSpaceOnUse" color-interpolation-filters="sRGB">
<feFlood flood-opacity="0" result="BackgroundImageFix"/>
<feColorMatrix in="SourceAlpha" type="matrix" values="0 0 0 0 0 0 0 0 0 0 0 0 0 0 0 0 0 0 127 0" result="hardAlpha"/>
<feOffset dy="4"/>
<feGaussianBlur stdDeviation="7.5"/>
<feComposite in2="hardAlpha" operator="out"/>
<feColorMatrix type="matrix" values="0 0 0 0 0.847059 0 0 0 0 0.823529 0 0 0 0 0.988235 0 0 0 0.25 0"/>
<feBlend mode="normal" in2="BackgroundImageFix" result="effect1_dropShadow_1_7182"/>
<feBlend mode="normal" in="SourceGraphic" in2="effect1_dropShadow_1_7182" result="shape"/>
</filter>
<filter id="filter1_d_1_7182" x="64" y="64" width="42" height="42" filterUnits="userSpaceOnUse" color-interpolation-filters="sRGB">
<feFlood flood-opacity="0" result="BackgroundImageFix"/>
<feColorMatrix in="SourceAlpha" type="matrix" values="0 0 0 0 0 0 0 0 0 0 0 0 0 0 0 0 0 0 127 0" result="hardAlpha"/>
<feOffset dy="4"/>
<feGaussianBlur stdDeviation="7.5"/>
<feComposite in2="hardAlpha" operator="out"/>
<feColorMatrix type="matrix" values="0 0 0 0 0.847059 0 0 0 0 0.823529 0 0 0 0 0.988235 0 0 0 0.64 0"/>
<feBlend mode="normal" in2="BackgroundImageFix" result="effect1_dropShadow_1_7182"/>
<feBlend mode="normal" in="SourceGraphic" in2="effect1_dropShadow_1_7182" result="shape"/>
</filter>
<filter id="filter2_d_1_7182" x="50" y="59" width="42" height="42" filterUnits="userSpaceOnUse" color-interpolation-filters="sRGB">
<feFlood flood-opacity="0" result="BackgroundImageFix"/>
<feColorMatrix in="SourceAlpha" type="matrix" values="0 0 0 0 0 0 0 0 0 0 0 0 0 0 0 0 0 0 127 0" result="hardAlpha"/>
<feOffset dy="4"/>
<feGaussianBlur stdDeviation="7.5"/>
<feComposite in2="hardAlpha" operator="out"/>
<feColorMatrix type="matrix" values="0 0 0 0 0.847059 0 0 0 0 0.823529 0 0 0 0 0.988235 0 0 0 0.64 0"/>
<feBlend mode="normal" in2="BackgroundImageFix" result="effect1_dropShadow_1_7182"/>
<feBlend mode="normal" in="SourceGraphic" in2="effect1_dropShadow_1_7182" result="shape"/>
</filter>
</defs>
</svg>
