<svg width="21" height="21" viewBox="0 0 21 21" fill="none" xmlns="http://www.w3.org/2000/svg">
<path d="M13.6357 4.59375V4.09375V3.9375C13.6357 3.7473 13.4822 3.59375 13.292 3.59375H13.1357H12.6357H7.19824H7.04199C6.85179 3.59375 6.69824 3.7473 6.69824 3.9375V4.09375V5H6.29199V3.9375C6.29199 3.52419 6.62868 3.1875 7.04199 3.1875H13.292C13.7053 3.1875 14.042 3.52419 14.042 3.9375V5H13.6357V4.59375ZM7.19824 6H7.69824H12.6357H13.1357H14.542H15.042H17.042C17.1116 6 17.167 6.05544 17.167 6.125V6.40625H16.3311H15.8541L15.8316 6.88266L15.3492 17.0975L15.3492 17.0977C15.3304 17.4989 15.0015 17.8125 14.6006 17.8125H5.7334C5.33452 17.8125 5.00354 17.497 4.9848 17.0977L4.9848 17.0975L4.50237 6.88266L4.47987 6.40625H4.00293H3.16699V6.125C3.16699 6.05544 3.22243 6 3.29199 6H5.29199H5.79199H7.19824ZM14.4502 17.4062H14.9271L14.9496 16.9299L15.4223 6.92986L15.447 6.40625H14.9229H5.41113H4.88694L4.91169 6.92986L5.38435 16.9299L5.40686 17.4062H5.88379H14.4502Z" fill="white" stroke="white"/>
</svg>
