<svg width="118" height="117" viewBox="0 0 118 117" fill="none" xmlns="http://www.w3.org/2000/svg">
<mask id="mask0_1_4677" style="mask-type:alpha" maskUnits="userSpaceOnUse" x="0" y="0" width="118" height="117">
<circle cx="59" cy="58.5" r="58.5" fill="#D9D9D9"/>
</mask>
<g mask="url(#mask0_1_4677)">
<circle cx="59" cy="60.5" r="80.5" fill="#E1F8FF"/>
<path d="M75.1805 24.4258C75.05 11.5562 74.9558 9.05906 74.9558 9.05906C74.9558 8.32334 74.6985 7.68185 74.1911 7.14909C73.6982 6.63445 72.9734 6.26115 72.147 6.09806C71.5527 5.98209 68.588 5.97121 67.9248 6.06182C66.9136 6.20679 65.9786 6.56921 65.1414 7.13459C64.3477 7.6746 63.7098 8.38133 63.3474 9.12429C63.0973 9.63169 62.9777 10.1318 62.9777 10.6465V27.3107V29.3801C62.9777 32.207 60.1508 34.9034 56.6716 35.3963C54.816 35.6573 53.0365 35.255 51.7897 34.2873C50.7133 33.4537 50.119 32.2759 50.119 30.9675V27.3107V24.4294V12.2375C50.1153 11.5018 49.8616 10.8603 49.3543 10.3275C48.8614 9.8129 48.1329 9.4396 47.3102 9.27651C46.7158 9.16054 46.0779 9.14966 45.4147 9.24027C44.4036 9.38524 41.1417 9.74766 40.3046 10.313C39.5108 10.8531 38.873 11.5598 38.5106 12.3027C38.2605 12.8101 38.1409 13.3103 38.1409 13.8249V24.665H38.13C38.0575 29.815 35.622 42.2715 33.4765 49.8969C31.3962 57.2831 30.3524 64.9193 30.3524 72.5918V105.333C30.3524 114.082 34.3101 122.356 41.12 127.85L41.4244 128.093C52.192 136.777 67.5986 136.625 78.1886 127.727C84.734 122.229 88.5104 114.122 88.5104 105.576V81.4386C88.5104 64.3213 84.4839 47.5774 77.5036 31.9787C76.844 30.5181 75.2313 29.0938 75.1805 24.4258Z" fill="#FFD7EF"/>
<path d="M30.3455 93.384V105.337C30.3455 114.086 34.3031 122.36 41.113 127.854L41.4175 128.097C52.1851 136.781 67.5917 136.628 78.1817 127.731C84.727 122.233 88.5035 114.126 88.5035 105.58V95.0838C81.7878 99.6829 73.1911 102.445 63.8152 102.445C49.5756 102.445 37.1228 102.89 30.3455 93.384Z" fill="#CA79C6"/>
<path fill-rule="evenodd" clip-rule="evenodd" d="M52.2139 58.1131H41.8739C39.163 58.1131 36.9486 55.895 36.9486 53.1877C36.9486 50.4768 39.1666 48.2588 41.8739 48.2588H52.2102C54.9212 48.2588 57.1392 50.4768 57.1392 53.1877C57.1392 55.895 54.9212 58.1131 52.2139 58.1131Z" fill="white"/>
<path d="M47.0454 58.0406C49.7276 58.0406 51.9019 55.8663 51.9019 53.1841C51.9019 50.502 49.7276 48.3276 47.0454 48.3276C44.3633 48.3276 42.189 50.502 42.189 53.1841C42.189 55.8663 44.3633 58.0406 47.0454 58.0406Z" fill="#6B686A"/>
<path fill-rule="evenodd" clip-rule="evenodd" d="M78.0982 58.1131H67.7619C65.051 58.1131 62.8365 55.895 62.8365 53.1877C62.8365 50.4768 65.0546 48.2588 67.7619 48.2588H78.0982C80.8091 48.2588 83.0271 50.4768 83.0271 53.1877C83.0235 55.895 80.8055 58.1131 78.0982 58.1131Z" fill="white"/>
<path d="M72.93 58.0406C75.6121 58.0406 77.7864 55.8663 77.7864 53.1841C77.7864 50.502 75.6121 48.3276 72.93 48.3276C70.2478 48.3276 68.0735 50.502 68.0735 53.1841C68.0735 55.8663 70.2478 58.0406 72.93 58.0406Z" fill="#6B686A"/>
<path d="M57.2082 67.1191C58.3099 65.9811 59.6364 65.3143 61.0643 65.3143C62.456 65.3143 63.7535 65.9485 64.8372 67.0358" stroke="white" stroke-width="2.801" stroke-miterlimit="10" stroke-linecap="round"/>
<path d="M40.399 68.8443C44.5323 68.8443 47.883 67.1682 47.883 65.1005C47.883 63.0329 44.5323 61.3567 40.399 61.3567C36.2656 61.3567 32.9149 63.0329 32.9149 65.1005C32.9149 67.1682 36.2656 68.8443 40.399 68.8443Z" fill="#EF6AC7"/>
<path d="M79.1671 68.1268C83.3005 68.1268 86.6512 66.4507 86.6512 64.383C86.6512 62.3153 83.3005 60.6392 79.1671 60.6392C75.0338 60.6392 71.6831 62.3153 71.6831 64.383C71.6831 66.4507 75.0338 68.1268 79.1671 68.1268Z" fill="#EF6AC7"/>
<path d="M50.1298 18.3226V12.2376C50.1262 11.5018 49.8725 10.8603 49.3651 10.3276C48.8722 9.81295 48.1437 9.43603 47.321 9.27656C46.7267 9.16059 46.0888 9.14609 45.4256 9.24032C44.4144 9.38529 41.1526 9.74771 40.3154 10.3131C39.5217 10.8531 38.8838 11.5598 38.5214 12.3028C38.2713 12.8102 38.1517 13.3103 38.1517 13.825V22.8493C38.4743 22.871 38.7968 22.8819 39.123 22.8819C43.3489 22.8819 47.2087 21.1568 50.1298 18.3226Z" fill="#6B686A"/>
<path d="M74.1984 7.14912C73.7055 6.63448 72.9806 6.26119 72.1543 6.09809C71.5599 5.98212 68.5953 5.96762 67.9321 6.06185C66.9209 6.20682 65.9858 6.56924 65.1487 7.13462C64.3549 7.67463 63.7171 8.38136 63.3547 9.12433C63.1046 9.63172 62.985 10.1319 62.985 10.6465V18.3117C64.1556 18.5981 65.377 18.7539 66.6273 18.7539C69.7224 18.7539 72.6182 17.8297 75.0972 16.2206C75.0174 10.4073 74.9667 9.05547 74.9667 9.05547C74.9594 8.32337 74.7021 7.68188 74.1984 7.14912Z" fill="#6B686A"/>
<path d="M29.5 76.4188C29.5 76.4188 36.3313 80.6104 54.644 75.159" stroke="#6B686A" stroke-width="3" stroke-miterlimit="10" stroke-linecap="round"/>
<path d="M54.5607 78.4829C46.6841 77.0862 53.1158 71.9003 53.1158 71.9003" stroke="#6B686A" stroke-width="3" stroke-miterlimit="10" stroke-linecap="round"/>
<path d="M89.5001 78.2653C89.5001 78.2653 82.2836 81.752 64.6085 74.4947" stroke="#6B686A" stroke-width="3" stroke-miterlimit="10" stroke-linecap="round"/>
<path d="M64.3585 77.8102C72.3354 77.209 66.4552 71.4053 66.4552 71.4053" stroke="#6B686A" stroke-width="3" stroke-miterlimit="10" stroke-linecap="round"/>
<path d="M55.0588 41.6328C55.0588 41.5042 55.1549 41.396 55.2825 41.3807L59.0029 40.9342C59.4063 40.8858 59.8139 40.8825 60.2181 40.9243L64.727 41.3907C64.8596 41.4044 64.9604 41.5162 64.9604 41.6495C64.9604 41.8103 64.81 41.9413 64.6386 41.9094C61.0867 41.2468 58.7645 41.1987 55.3847 41.8881C55.2102 41.9237 55.0588 41.7908 55.0588 41.6328Z" fill="#A8A8A8" stroke="#6B686A"/>
<circle cx="43.6574" cy="49.8466" r="13.9203" stroke="#6B686A" stroke-width="2"/>
<circle cx="75.9581" cy="49.8466" r="13.9203" stroke="#6B686A" stroke-width="2"/>
<path d="M36.9222 45.4906C39.3414 45.8501 45.4496 45.3827 50.5298 40.6373" stroke="#6B686A" stroke-width="2" stroke-linecap="round" stroke-linejoin="round"/>
<path d="M82.6931 45.4906C80.274 45.8501 74.1657 45.3827 69.0856 40.6373" stroke="#6B686A" stroke-width="2" stroke-linecap="round" stroke-linejoin="round"/>
</g>
</svg>
