<svg width="68" height="68" viewBox="0 0 68 68" fill="none" xmlns="http://www.w3.org/2000/svg">
<path d="M51.0001 20.2867C50.8301 20.2584 50.6317 20.2584 50.4617 20.2867C46.5517 20.145 43.4351 16.9434 43.4351 12.9767C43.4351 8.92503 46.6934 5.66669 50.7451 5.66669C54.7967 5.66669 58.055 8.95336 58.055 12.9767C58.0267 16.9434 54.9101 20.145 51.0001 20.2867Z" stroke="#292D32" stroke-width="2.5" stroke-linecap="round" stroke-linejoin="round"/>
<path d="M48.0818 40.9134C51.9635 41.565 56.2418 40.885 59.2452 38.8734C63.2402 36.21 63.2402 31.8467 59.2452 29.1834C56.2135 27.1717 51.8785 26.4917 47.9968 27.1717" stroke="#292D32" stroke-width="2.5" stroke-linecap="round" stroke-linejoin="round"/>
<path d="M16.9151 20.2867C17.0851 20.2584 17.2834 20.2584 17.4534 20.2867C21.3634 20.145 24.4801 16.9434 24.4801 12.9767C24.4801 8.92503 21.2218 5.66669 17.1701 5.66669C13.1184 5.66669 9.86011 8.95336 9.86011 12.9767C9.88844 16.9434 13.0051 20.145 16.9151 20.2867Z" stroke="#292D32" stroke-width="2.5" stroke-linecap="round" stroke-linejoin="round"/>
<path d="M19.8334 40.9134C15.9517 41.565 11.6734 40.885 8.67008 38.8734C4.67508 36.21 4.67508 31.8467 8.67008 29.1834C11.7017 27.1717 16.0367 26.4917 19.9184 27.1717" stroke="#292D32" stroke-width="2.5" stroke-linecap="round" stroke-linejoin="round"/>
<path d="M34.0001 41.4517C33.8301 41.4233 33.6317 41.4233 33.4617 41.4517C29.5517 41.31 26.4351 38.1083 26.4351 34.1417C26.4351 30.09 29.6934 26.8317 33.7451 26.8317C37.7967 26.8317 41.0551 30.1183 41.0551 34.1417C41.0267 38.1083 37.9101 41.3383 34.0001 41.4517Z" stroke="#292D32" stroke-width="2.5" stroke-linecap="round" stroke-linejoin="round"/>
<path d="M25.755 50.3766C21.76 53.04 21.76 57.4033 25.755 60.0666C30.2884 63.0983 37.7117 63.0983 42.245 60.0666C46.24 57.4033 46.24 53.04 42.245 50.3766C37.74 47.3733 30.2884 47.3733 25.755 50.3766Z" stroke="#292D32" stroke-width="2.5" stroke-linecap="round" stroke-linejoin="round"/>
</svg>
