<svg width="16" height="16" viewBox="0 0 16 16" fill="none" xmlns="http://www.w3.org/2000/svg">
<path fill-rule="evenodd" clip-rule="evenodd" d="M4.91444 2.63524C5.73278 1.80164 6.84269 1.33333 8 1.33333C9.15731 1.33333 10.2672 1.80164 11.0856 2.63524C11.9039 3.46884 12.3636 4.59944 12.3636 5.77833V7.44521C12.3636 8.15931 12.6675 8.59994 13.0454 9.03617C13.0891 9.08661 13.1371 9.14047 13.1873 9.19676C13.3393 9.36718 13.5111 9.5599 13.6427 9.74758C13.832 10.0176 14 10.3557 14 10.779C14 11.2503 13.7306 11.6168 13.4065 11.8754C13.0822 12.134 12.6427 12.3378 12.1362 12.4974C11.1177 12.8184 9.69468 13.0015 8 13.0015C6.30532 13.0015 4.88231 12.8184 3.8638 12.4974C3.35732 12.3378 2.91776 12.134 2.59354 11.8754C2.26943 11.6168 2 11.2503 2 10.779C2 10.3557 2.16797 10.0176 2.35728 9.74758C2.48889 9.5599 2.66074 9.36718 2.81272 9.19676C2.86291 9.14047 2.91094 9.08661 2.95463 9.03617C3.3325 8.59994 3.63636 8.15931 3.63636 7.44521V5.77833C3.63636 4.59944 4.0961 3.46884 4.91444 2.63524ZM8 2.44458C7.13202 2.44458 6.29959 2.79581 5.68583 3.42101C5.07208 4.04621 4.72727 4.89416 4.72727 5.77833V7.44521C4.72727 8.56467 4.21296 9.26306 3.77264 9.7714C3.70179 9.85319 3.63744 9.92537 3.57848 9.9915C3.44344 10.143 3.33669 10.2627 3.24499 10.3935C3.12748 10.5611 3.09091 10.6744 3.09091 10.779C3.09086 10.7815 3.08925 10.8594 3.26612 11.0004C3.44474 11.1429 3.74495 11.2968 4.1862 11.4358C5.06315 11.7121 6.3674 11.8902 8 11.8902C9.6326 11.8902 10.9369 11.7121 11.8138 11.4358C12.2551 11.2968 12.5553 11.1429 12.7339 11.0004C12.9108 10.8594 12.9091 10.7816 12.9091 10.779C12.9091 10.6744 12.8725 10.5611 12.755 10.3935C12.6633 10.2627 12.5566 10.143 12.4215 9.9915C12.3626 9.92537 12.2982 9.85319 12.2274 9.7714C11.787 9.26306 11.2727 8.56467 11.2727 7.44521V5.77833C11.2727 4.89416 10.9279 4.04621 10.3142 3.42101C9.70041 2.79581 8.86798 2.44458 8 2.44458Z" fill="#E3A3E0"/>
<path d="M8 13.5571C7.44855 13.5571 6.93036 13.5382 6.44273 13.5015C6.54669 13.8393 6.7538 14.1345 7.0339 14.3441C7.314 14.5536 7.65246 14.6667 8 14.6667C8.34754 14.6667 8.686 14.5536 8.9661 14.3441C9.2462 14.1345 9.45331 13.8393 9.55727 13.5015C9.06964 13.5382 8.55145 13.5571 8 13.5571Z" fill="#E3A3E0"/>
</svg>
