<svg width="96" height="96" viewBox="0 0 96 96" fill="none" xmlns="http://www.w3.org/2000/svg">
<circle cx="48" cy="48" r="48" fill="#E0E9F4"/>
<mask id="mask0_1_5032" style="mask-type:alpha" maskUnits="userSpaceOnUse" x="0" y="0" width="96" height="96">
<circle cx="48" cy="48" r="48" fill="#FFECF9"/>
</mask>
<g mask="url(#mask0_1_5032)">
<path d="M59.9841 26.217C59.8859 16.3347 59.8123 14.4179 59.8123 14.4179C59.8123 13.8539 59.6118 13.3594 59.2231 12.9507C58.8467 12.5543 58.2862 12.2682 57.6521 12.1415C57.1939 12.0516 54.915 12.0434 54.4077 12.1129C53.6303 12.2232 52.9103 12.5011 52.2679 12.9384C51.6583 13.3512 51.1674 13.8948 50.8892 14.467C50.6969 14.8593 50.6028 15.2394 50.6028 15.6358V28.428V30.0178C50.6028 32.188 48.4303 34.2601 45.7546 34.6361C44.3308 34.8364 42.9602 34.5258 42.0028 33.786C41.1764 33.1444 40.7182 32.2411 40.7182 31.2358V28.4239V26.2088V16.8497C40.7182 16.2857 40.5177 15.7911 40.129 15.3824C39.7485 14.986 39.1921 14.6999 38.558 14.5732C38.0997 14.4833 37.6088 14.4751 37.1015 14.5446C36.3241 14.655 33.8161 14.9329 33.1738 15.3702C32.5642 15.783 32.0732 16.3265 31.795 16.8987C31.6027 17.2911 31.5086 17.6711 31.5086 18.0676V26.3927H31.5005C31.4432 30.3448 29.5735 39.9124 27.9247 45.7649C26.325 51.4376 25.5231 57.2983 25.5231 63.1917V88.3305C25.5231 95.0454 28.567 101.405 33.7998 105.618L34.033 105.806C42.3097 112.472 54.1499 112.358 62.2916 105.524C67.3198 101.303 70.2247 95.0781 70.2247 88.5144V69.9801C70.2247 56.8364 67.1275 43.9789 61.7638 32.0041C61.2606 30.8965 60.0209 29.8012 59.9841 26.217Z" fill="#0071CE"/>
<mask id="mask1_1_5032" style="mask-type:alpha" maskUnits="userSpaceOnUse" x="25" y="79" width="46" height="32">
<path d="M25.5192 79.1676V88.3469C25.5192 95.0618 28.5632 101.421 33.7959 105.635L34.0291 105.823C42.3058 112.489 54.1461 112.374 62.2878 105.541C67.316 101.319 70.2208 95.0945 70.2208 88.5308V80.4713C65.0576 84.0025 58.4501 86.1236 51.2453 86.1236C40.3011 86.1277 30.7275 86.4669 25.5192 79.1676Z" fill="#19D3C5"/>
</mask>
<g mask="url(#mask1_1_5032)">
<path d="M25.5192 79.1676V88.3469C25.5192 95.0618 28.5632 101.421 33.7959 105.635L34.0291 105.823C42.3058 112.489 54.1461 112.374 62.2878 105.541C67.316 101.319 70.2208 95.0945 70.2208 88.5308V80.4713C65.0576 84.0025 58.4501 86.1236 51.2453 86.1236C40.3011 86.1277 30.7275 86.4669 25.5192 79.1676Z" fill="#19D3C5"/>
<path d="M33.2474 78.2399L34.8389 81.4604L38.3983 81.9753L35.8208 84.4847L36.4304 88.0281L33.2474 86.3566L30.0603 88.0281L30.6699 84.4847L28.0923 81.9753L31.6518 81.4604L33.2474 78.2399Z" fill="#0071CE"/>
<path d="M29.549 90.0593L31.1405 93.2839L34.7 93.7989L32.1265 96.3083L32.7321 99.8517L29.549 98.176L26.366 99.8517L26.9715 96.3083L24.3981 93.7989L27.9575 93.2839L29.549 90.0593Z" fill="#0071CE"/>
<path d="M43.897 90.0593L45.4885 93.2839L49.0479 93.7989L46.4745 96.3083L47.08 99.8517L43.897 98.176L40.7139 99.8517L41.3236 96.3083L38.746 93.7989L42.3055 93.2839L43.897 90.0593Z" fill="#0071CE"/>
<path d="M55.2587 80.7983L57.018 84.3744L60.9538 84.9465L58.1062 87.7338L58.7813 91.6655L55.2587 89.8059L51.7402 91.6655L52.4111 87.7338L49.5636 84.9465L53.4994 84.3744L55.2587 80.7983Z" fill="#0071CE"/>
<path d="M66.4606 91.5633L68.0521 94.7838L71.6115 95.3029L69.034 97.8082L69.6436 101.352L66.4606 99.68L63.2775 101.352L63.8831 97.8082L61.3096 95.3029L64.8691 94.7838L66.4606 91.5633Z" fill="#0071CE"/>
<path d="M70.2248 77.8557L71.8163 81.0762L75.3758 81.5953L72.7982 84.1006L73.4078 87.6439L70.2248 85.9724L67.0377 87.6439L67.6473 84.1006L65.0698 81.5953L68.6292 81.0762L70.2248 77.8557Z" fill="#0071CE"/>
</g>
<path d="M27.4911 61.0011C27.4911 61.0011 22.3034 57.6825 19.9386 43.2024" stroke="black" stroke-width="2" stroke-miterlimit="10" stroke-linecap="round"/>
<path d="M17.6678 44.3713C21.2722 49.3451 22.7042 43.1656 22.7042 43.1656" stroke="black" stroke-width="2" stroke-miterlimit="10" stroke-linecap="round"/>
<path fill-rule="evenodd" clip-rule="evenodd" d="M42.3263 52.0833H34.381C32.2985 52.0833 30.5925 50.3791 30.5925 48.2988C30.5925 46.2186 32.2985 44.5143 34.381 44.5143H42.3263C44.4088 44.5143 46.1149 46.2186 46.1149 48.2988C46.1149 50.3832 44.4088 52.0833 42.3263 52.0833Z" fill="white"/>
<path d="M38.3576 52.0343C40.4205 52.0343 42.0929 50.3637 42.0929 48.3029C42.0929 46.2421 40.4205 44.5715 38.3576 44.5715C36.2946 44.5715 34.6222 46.2421 34.6222 48.3029C34.6222 50.3637 36.2946 52.0343 38.3576 52.0343Z" fill="#231F20"/>
<path fill-rule="evenodd" clip-rule="evenodd" d="M62.2222 52.0833H54.2769C52.1944 52.0833 50.4883 50.3791 50.4883 48.2988C50.4883 46.2186 52.1944 44.5143 54.2769 44.5143H62.2222C64.3047 44.5143 66.0108 46.2186 66.0108 48.2988C66.0108 50.3832 64.3088 52.0833 62.2222 52.0833Z" fill="white"/>
<path d="M58.2535 52.0343C60.3165 52.0343 61.9889 50.3637 61.9889 48.3029C61.9889 46.2421 60.3165 44.5715 58.2535 44.5715C56.1906 44.5715 54.5182 46.2421 54.5182 48.3029C54.5182 50.3637 56.1906 52.0343 58.2535 52.0343Z" fill="#231F20"/>
<path d="M52.0308 57.613C51.1839 58.4876 50.1652 58.9985 49.0687 58.9985C47.9968 58.9985 47.0026 58.5121 46.168 57.6743" stroke="white" stroke-width="1.9073" stroke-miterlimit="10" stroke-linecap="round"/>
<path d="M33.2476 60.3226C36.4245 60.3226 38.9999 59.0363 38.9999 57.4495C38.9999 55.8627 36.4245 54.5764 33.2476 54.5764C30.0706 54.5764 27.4952 55.8627 27.4952 57.4495C27.4952 59.0363 30.0706 60.3226 33.2476 60.3226Z" fill="#F664CD"/>
<path d="M63.0485 59.7709C66.2254 59.7709 68.8008 58.4846 68.8008 56.8978C68.8008 55.311 66.2254 54.0246 63.0485 54.0246C59.8715 54.0246 57.2961 55.311 57.2961 56.8978C57.2961 58.4846 59.8715 59.7709 63.0485 59.7709Z" fill="#F664CD"/>
<path d="M40.7264 21.5292V16.8578C40.7264 16.2938 40.5259 15.7993 40.1372 15.3906C39.7567 14.9942 39.2003 14.7081 38.5662 14.5814C38.1079 14.4915 37.617 14.4833 37.1097 14.5528C36.3323 14.6631 33.8243 14.9411 33.182 15.3784C32.5724 15.7911 32.0814 16.3347 31.8032 16.9069C31.6109 17.2992 31.5168 17.6793 31.5168 18.0758V25.0031C31.7664 25.0195 32.0119 25.0277 32.2656 25.0277C35.5141 25.0318 38.4802 23.7076 40.7264 21.5292Z" fill="#19D3C5"/>
<path d="M59.2273 12.9507C58.8509 12.5542 58.2903 12.2682 57.6562 12.1415C57.198 12.0515 54.9191 12.0434 54.4118 12.1129C53.6344 12.2232 52.9144 12.5011 52.272 12.9384C51.6624 13.3512 51.1715 13.8948 50.8933 14.4669C50.701 14.8593 50.6069 15.2394 50.6069 15.6358V21.521C51.507 21.7417 52.4439 21.8602 53.4053 21.8602C55.7865 21.8602 58.0121 21.1491 59.9146 19.9149C59.8532 15.4519 59.8164 14.4138 59.8164 14.4138C59.8123 13.8539 59.6159 13.3594 59.2273 12.9507Z" fill="#19D3C5"/>
<path d="M67.5867 66.6103C67.5867 66.6103 61.6175 68.1252 49.4364 59.9468" stroke="black" stroke-width="2" stroke-miterlimit="10" stroke-linecap="round"/>
<path d="M48.7361 62.4028C54.8299 63.1751 51.3011 57.904 51.3011 57.904" stroke="black" stroke-width="2" stroke-miterlimit="10" stroke-linecap="round"/>
</g>
</svg>
