<svg width="16" height="17" viewBox="0 0 16 17" fill="none" xmlns="http://www.w3.org/2000/svg">
<path d="M8.10671 7.74666C8.04004 7.73999 7.96004 7.73999 7.88671 7.74666C6.30004 7.69333 5.04004 6.39333 5.04004 4.79333C5.04004 3.15999 6.36004 1.83333 8.00004 1.83333C9.63337 1.83333 10.96 3.15999 10.96 4.79333C10.9534 6.39333 9.69337 7.69333 8.10671 7.74666Z" stroke="#271E4A" stroke-linecap="round" stroke-linejoin="round"/>
<path d="M4.77348 10.2067C3.16014 11.2867 3.16014 13.0467 4.77348 14.12C6.60681 15.3467 9.61348 15.3467 11.4468 14.12C13.0601 13.04 13.0601 11.28 11.4468 10.2067C9.62014 8.98667 6.61348 8.98667 4.77348 10.2067Z" stroke="#271E4A" stroke-linecap="round" stroke-linejoin="round"/>
</svg>
