<svg width="68" height="68" viewBox="0 0 68 68" fill="none" xmlns="http://www.w3.org/2000/svg">
<path d="M51.0001 20.2866C50.8301 20.2583 50.6317 20.2583 50.4617 20.2866C46.5517 20.145 43.4351 16.9433 43.4351 12.9766C43.4351 8.92496 46.6934 5.66663 50.7451 5.66663C54.7967 5.66663 58.055 8.9533 58.055 12.9766C58.0267 16.9433 54.9101 20.145 51.0001 20.2866Z" stroke="#292D32" stroke-width="2.5" stroke-linecap="round" stroke-linejoin="round"/>
<path d="M48.0818 40.9133C51.9635 41.5649 56.2418 40.8849 59.2452 38.8733C63.2402 36.2099 63.2402 31.8466 59.2452 29.1833C56.2135 27.1716 51.8785 26.4916 47.9968 27.1716" stroke="#292D32" stroke-width="2.5" stroke-linecap="round" stroke-linejoin="round"/>
<path d="M16.9151 20.2866C17.0851 20.2583 17.2834 20.2583 17.4534 20.2866C21.3634 20.145 24.4801 16.9433 24.4801 12.9766C24.4801 8.92496 21.2218 5.66663 17.1701 5.66663C13.1184 5.66663 9.86011 8.9533 9.86011 12.9766C9.88844 16.9433 13.0051 20.145 16.9151 20.2866Z" stroke="#292D32" stroke-width="2.5" stroke-linecap="round" stroke-linejoin="round"/>
<path d="M19.8334 40.9133C15.9517 41.5649 11.6734 40.8849 8.67008 38.8733C4.67508 36.2099 4.67508 31.8466 8.67008 29.1833C11.7017 27.1716 16.0367 26.4916 19.9184 27.1716" stroke="#292D32" stroke-width="2.5" stroke-linecap="round" stroke-linejoin="round"/>
<path d="M34.0001 41.4517C33.8301 41.4233 33.6317 41.4233 33.4617 41.4517C29.5517 41.31 26.4351 38.1083 26.4351 34.1417C26.4351 30.09 29.6934 26.8317 33.7451 26.8317C37.7967 26.8317 41.0551 30.1183 41.0551 34.1417C41.0267 38.1083 37.9101 41.3383 34.0001 41.4517Z" stroke="#292D32" stroke-width="2.5" stroke-linecap="round" stroke-linejoin="round"/>
<path d="M25.755 50.3766C21.76 53.04 21.76 57.4033 25.755 60.0666C30.2884 63.0983 37.7117 63.0983 42.245 60.0666C46.24 57.4033 46.24 53.04 42.245 50.3766C37.74 47.3733 30.2884 47.3733 25.755 50.3766Z" stroke="#292D32" stroke-width="2.5" stroke-linecap="round" stroke-linejoin="round"/>
</svg>
