<svg width="60" height="60" viewBox="0 0 60 60" fill="none" xmlns="http://www.w3.org/2000/svg">
<path d="M21.25 47.5H20C10 47.5 5 45 5 32.5V20C5 10 10 5 20 5H40C50 5 55 10 55 20V32.5C55 42.5 50 47.5 40 47.5H38.75C37.975 47.5 37.225 47.875 36.75 48.5L33 53.5C31.35 55.7 28.65 55.7 27 53.5L23.25 48.5C22.85 47.95 21.925 47.5 21.25 47.5Z" stroke="#271E4A" stroke-width="4" stroke-miterlimit="10" stroke-linecap="round" stroke-linejoin="round"/>
<path d="M39.9912 27.5H40.0136" stroke="#271E4A" stroke-width="6" stroke-linecap="round" stroke-linejoin="round"/>
<path d="M29.9887 27.5H30.0112" stroke="#271E4A" stroke-width="6" stroke-linecap="round" stroke-linejoin="round"/>
<path d="M19.9863 27.5H20.0087" stroke="#271E4A" stroke-width="6" stroke-linecap="round" stroke-linejoin="round"/>
</svg>
