<svg width="36" height="36" viewBox="0 0 36 36" fill="none" xmlns="http://www.w3.org/2000/svg">
<path d="M20.5951 5.265L23.2351 10.545C23.5951 11.28 24.5551 11.985 25.3651 12.12L30.1501 12.915C33.2101 13.425 33.9301 15.645 31.7251 17.835L28.0051 21.555C27.3751 22.185 27.0301 23.4 27.2251 24.27L28.2901 28.875C29.1301 32.52 27.1951 33.93 23.9701 32.025L19.4851 29.37C18.6751 28.89 17.3401 28.89 16.5151 29.37L12.0301 32.025C8.82011 33.93 6.87011 32.505 7.71011 28.875L8.77511 24.27C8.97011 23.4 8.62511 22.185 7.99511 21.555L4.27511 17.835C2.08511 15.645 2.79011 13.425 5.85011 12.915L10.6351 12.12C11.4301 11.985 12.3901 11.28 12.7501 10.545L15.3901 5.265C16.8301 2.4 19.1701 2.4 20.5951 5.265Z" stroke="#292D32" stroke-width="2" stroke-linecap="round" stroke-linejoin="round"/>
</svg>
